<?xml version="1.0" encoding="UTF-8"?>
<svg width="80px" height="56px" viewBox="0 0 80 56" version="1.1" xmlns="http://www.w3.org/2000/svg" xmlns:xlink="http://www.w3.org/1999/xlink">
    <!-- Generator: sketchtool 60.1 (101010) - https://sketch.com -->
    <title>71917CC9-F8B9-49F5-BE50-B37F60550754@2x</title>
    <desc>Created with sketchtool.</desc>
    <g id="Page-1" stroke="none" stroke-width="1" fill="none" fill-rule="evenodd">
        <g id="Home--28-Nov" transform="translate(-170.000000, -14.000000)">
            <g id="Group-2">
                <g id="Group-16">
                    <g id="Logo" transform="translate(170.000000, 14.000000)">
                        <polygon id="Fill-1" fill="#10A7DB" points="13.2864777 42.5785274 13.2864777 55 6.71388461 55 6.71388461 42.5785274 0 22 7.22362105 22 10.0019926 33.9564744 12.7785527 22 20 22"></polygon>
                        <path d="M32.387249,28.3956622 C32.0121878,27.645889 31.307249,27.0843831 30.0883918,27.0843831 C28.8662286,27.0843831 28.2549633,27.645889 27.8817388,28.3956622 C27.0827592,29.940261 26.9890857,34.1059529 26.9890857,38.1313599 C26.9890857,42.1553017 27.0827592,46.3209936 27.8817388,47.866325 C28.2549633,48.6149994 28.8662286,49.1768715 30.0883918,49.1768715 C31.307249,49.1768715 32.0121878,48.6149994 32.387249,47.866325 C33.187698,46.3209936 33.2802694,42.1553017 33.2802694,38.1313599 C33.2802694,34.1059529 33.187698,29.940261 32.387249,28.3956622 M37.4562694,51.8452145 C35.9064327,53.6711157 33.8419429,55.167732 30.0883918,55.167732 C26.3322694,55.167732 24.359249,53.6711157 22.811249,51.8452145 C20.1358612,48.6618831 20.3246776,42.624139 20.3246776,38.1313599 C20.3246776,33.6360169 20.1358612,27.598639 22.811249,24.4167727 C24.359249,22.5927029 26.3322694,21.0942552 30.0883918,21.0942552 C33.8419429,21.0942552 35.9064327,22.5927029 37.4562694,24.4167727 C40.1327592,27.598639 39.9446776,33.6360169 39.9446776,38.1313599 C39.9446776,42.624139 40.1327592,48.6618831 37.4562694,51.8452145" id="Fill-2" fill="#10A7DB"></path>
                        <path d="M58.9104694,52.4055483 C57.127,54.2310831 54.7792857,55.1676587 51.9624694,55.1676587 C49.1463878,55.1676587 46.7994082,54.2310831 45.0159388,52.4055483 C43.4201837,50.767182 42.5275306,48.521525 42.5275306,45.8528157 L42.5275306,21.4677866 L49.1937755,21.4677866 L49.1937755,46.1795366 C49.1937755,48.335089 50.4592857,49.1771645 51.9624694,49.1771645 C53.4656531,49.1771645 54.7326327,48.335089 54.7326327,46.1795366 L54.7326327,21.4677866 L61.3992449,21.4677866 L61.3992449,45.8528157 C61.3992449,48.521525 60.5069592,50.767182 58.9104694,52.4055483" id="Fill-4" fill="#10A7DB"></path>
                        <path d="M65.8721347,37.6907262 C64.8703796,36.9823424 64.2370735,35.8520052 64.2370735,34.0107203 L64.2370735,27.6231797 L62.9190327,27.6231797 L62.9190327,24.9687552 L64.2370735,24.9687552 L64.2370735,21.4700576 L67.769849,21.4700576 L67.769849,24.9687552 L69.5096041,24.9687552 L69.5096041,27.6231797 L67.769849,27.6231797 L67.769849,33.7744703 C67.769849,34.8784355 68.3245429,35.4051448 69.5096041,35.4051448 L69.5096041,38.5599064 C68.058951,38.5599064 66.8981347,38.429511 65.8721347,37.6907262" id="Fill-6" fill="#10A7DB"></path>
                        <path d="M76.2303265,38.5613349 L76.2303265,28.6483581 C76.2303265,27.7810093 75.7590204,27.3605209 75.1238776,27.3605209 C74.4920408,27.3605209 74.0174286,27.7810093 74.0174286,28.6483581 L74.0174286,38.5613349 L70.4831837,38.5613349 L70.4831837,20.0195558 L74.0174286,20.0195558 L74.0174286,25.256614 C74.2800816,24.9687186 74.5706531,24.7302709 74.8865714,24.5482302 C75.2829388,24.3357884 75.7847347,24.2057593 76.2303265,24.2057593 C77.5237551,24.2057593 78.2882041,24.5738698 78.9747755,25.3888407 C79.5287347,26.0712186 79.7642041,26.8330791 79.7642041,28.595614 L79.7642041,38.5613349 L76.2303265,38.5613349 Z" id="Fill-8" fill="#10A7DB"></path>
                        <path d="M32.5551265,12.1649209 C32.279249,12.276636 32.0287184,12.3586826 31.8042694,12.4103279 C31.0802286,12.5648977 30.5630041,12.8231244 30.2529633,13.1839093 C29.9425551,13.5450605 29.7868,14.0347756 29.7868,14.6541535 C29.7868,15.1867233 29.8907592,15.643107 30.0975755,16.0207407 C30.3047592,16.3994733 30.6485959,16.588107 31.1320245,16.588107 C31.3733714,16.588107 31.6235347,16.5496477 31.8817796,16.4723628 C32.1414939,16.3950779 32.377698,16.270543 32.593698,16.0983919 C32.8085959,15.9269733 32.9860245,15.7031767 33.1237796,15.4277349 C33.2622694,15.1530256 33.3302286,14.8263047 33.3302286,14.4475721 L33.3302286,11.7136651 C33.089249,11.9030314 32.8302694,12.0532058 32.5551265,12.1649209 L32.5551265,12.1649209 Z M26.8120245,8.69589186 C26.8120245,7.88751395 26.9420653,7.21282791 27.2003102,6.67146744 C27.4585551,6.1297407 27.8086367,5.69130465 28.2479837,5.35579302 C28.6873306,5.0202814 29.2056571,4.78000233 29.7996571,4.6334907 C30.3951265,4.48807791 31.0288,4.41445581 31.7010449,4.41445581 C32.7700245,4.41445581 33.6318204,4.51774651 34.2882694,4.72396163 C34.9425143,4.93017674 35.4520245,5.22283372 35.8142286,5.6012 C36.175698,5.9792 36.4225551,6.43045581 36.5518612,6.95533372 C36.6811673,7.47984535 36.7458204,8.05160698 36.7458204,8.67025233 L36.7458204,15.9694616 C36.7458204,16.6225372 36.7748408,17.1305663 36.8361878,17.4913512 C36.8960653,17.852136 37.0125143,18.2385605 37.1851673,18.6520895 L33.7710449,18.6520895 C33.6494531,18.4290256 33.5590857,18.192043 33.4995755,17.9422407 C33.4378612,17.6935372 33.3834939,17.4488628 33.3302286,17.2078512 L33.2788,17.2078512 C32.8651673,17.9294209 32.387249,18.3989907 31.8432082,18.613264 C31.3006367,18.8279035 30.5968,18.9355895 29.7350041,18.9355895 C29.1152898,18.9355895 28.5885143,18.8279035 28.1576163,18.613264 C27.7267184,18.3989907 27.3810449,18.1019384 27.1228,17.7235721 C26.8638204,17.3455721 26.6742694,16.9199558 26.5530449,16.446357 C26.4332898,15.973857 26.3723102,15.5050198 26.3723102,15.0409442 C26.3723102,14.3875023 26.4417388,13.8245314 26.5787592,13.3512988 C26.7176163,12.8787988 26.9292082,12.474793 27.2131673,12.1392814 C27.4971265,11.804136 27.8604327,11.5250314 28.2997796,11.3016012 C28.7387592,11.0781709 29.2703102,10.8792814 29.8907592,10.7074965 L31.9074939,10.1665023 C32.4419837,10.0287814 32.8133714,9.8397814 33.0201878,9.59876977 C33.2270041,9.3584907 33.3302286,9.00539767 33.3302286,8.54132209 C33.3302286,8.00838605 33.205698,7.59156047 32.9555347,7.29011279 C32.7053714,6.98976395 32.279249,6.83885698 31.6749633,6.83885698 C31.1235755,6.83885698 30.7103102,7.00258372 30.4340653,7.32893837 C30.1578204,7.6556593 30.0200653,8.09446163 30.0200653,8.64461279 L30.0200653,9.03103721 L26.8120245,9.03103721 L26.8120245,8.69589186 Z" id="Fill-10" fill="#384E99"></path>
                        <polygon id="Fill-12" fill="#384E99" points="39.3835918 18.6521628 42.953102 18.6521628 42.953102 0.236383721 39.3835918 0.236383721"></polygon>
                        <polygon id="Fill-14" fill="#384E99" points="45.5660408 18.6521628 49.135551 18.6521628 49.135551 0.236383721 45.5660408 0.236383721"></polygon>
                        <path d="M57.9985673,5.17701221 L54.4628531,11.7319424 L58.0503633,11.7319424 L58.0503633,5.17701221 L57.9985673,5.17701221 Z M57.6139551,0.790087791 L61.4317918,0.790087791 L61.4317918,11.7319424 L63.173751,11.7319424 L63.173751,14.4614541 L61.4317918,14.4614541 L61.4317918,18.0432971 L58.0503633,18.0432971 L58.0503633,14.4614541 L51.5942408,14.4614541 L51.5942408,11.5854308 L57.6139551,0.790087791 Z" id="Fill-15" fill="#F6A717"></path>
                    </g>
                </g>
            </g>
        </g>
    </g>
</svg>